<svg xmlns="http://www.w3.org/2000/svg" viewBox="0 0 236.37 113.29"><defs><style>.cls-1{font-size:49.04px;font-family:Montserrat-Black, Montserrat;font-weight:800;}.cls-1,.cls-4{fill:#fff;}.cls-2{letter-spacing:-0.01em;}.cls-3{letter-spacing:-0.01em;}</style></defs><title>Logo-withe</title><g id="Capa_2" data-name="Capa 2"><g id="Capa_1-2" data-name="Capa 1"><text class="cls-1" transform="translate(0 100.05)"><tspan class="cls-2">P</tspan><tspan class="cls-3" x="35.7" y="0">a</tspan><tspan x="66.55" y="0">yStub.</tspan></text><path class="cls-4" d="M135.07,0H101.3a9.93,9.93,0,0,0-9.93,9.92V43.7a9.93,9.93,0,0,0,9.93,9.92h33.77A9.92,9.92,0,0,0,145,43.7V9.92A9.92,9.92,0,0,0,135.07,0Zm-5.95,18.52c0-2.07,2.23-3.76,5-3.76a6,6,0,0,1,3.54,1.1,3.37,3.37,0,0,1,1.46,2.66V28a7.61,7.61,0,0,0-10,0Zm-31.86,0c0-2.07,2.23-3.76,5-3.76s5,1.69,5,3.76V31c0,2.07-2.24,3.75-5,3.75s-5-1.68-5-3.75Zm10,23.41c0,2.08-2.24,3.76-5,3.76a5.89,5.89,0,0,1-3.53-1.1,3.37,3.37,0,0,1-1.46-2.66V33.81a7.62,7.62,0,0,0,10,0Zm15.93-6.83c0,2.07-2.24,3.75-5,3.75s-5-1.68-5-3.75V29.66c0-2.08,2.24-3.76,5-3.76s5,1.68,5,3.76Zm0-8.29a7.61,7.61,0,0,0-10,0V11.68c0-2.07,2.24-3.75,5-3.75A5.93,5.93,0,0,1,121.72,9a3.36,3.36,0,0,1,1.46,2.65Zm15.93,14.55a4.33,4.33,0,0,1-4.33,4.33h-1.33a4.33,4.33,0,0,1-4.33-4.33V31.43a4.33,4.33,0,0,1,4.33-4.33h1.33a4.33,4.33,0,0,1,4.33,4.33Z"/></g></g></svg>