<svg xmlns="http://www.w3.org/2000/svg" xmlns:xlink="http://www.w3.org/1999/xlink" viewBox="0 0 232.59 106.87"><defs><style>.cls-1{fill:url(#Degradado_sin_nombre_13);}.cls-2{fill:url(#Degradado_sin_nombre_15);}.cls-3{fill:#fff;}</style><linearGradient id="Degradado_sin_nombre_13" y1="83.67" x2="232.59" y2="83.67" gradientUnits="userSpaceOnUse"><stop offset="0" stop-color="#153099"/><stop offset="1" stop-color="#2ef0ff"/></linearGradient><linearGradient id="Degradado_sin_nombre_15" x1="91.48" y1="2.91" x2="139.29" y2="50.71" gradientUnits="userSpaceOnUse"><stop offset="0" stop-color="#1f70d8"/><stop offset="1" stop-color="#2ef0ff"/></linearGradient></defs><title>Logo</title><g id="Capa_2" data-name="Capa 2"><g id="Capa_1-2" data-name="Capa 1"><path class="cls-1" d="M0,96.86V62.54H16.53a20.17,20.17,0,0,1,8.31,1.57,11.81,11.81,0,0,1,7.33,11.37,12.22,12.22,0,0,1-1.91,6.87,12.55,12.55,0,0,1-5.42,4.48,19.84,19.84,0,0,1-8.31,1.6H6.42l5.15-5V96.86ZM11.57,84.75,6.42,79.5h9.37a5.07,5.07,0,0,0,3.56-1.08,4.33,4.33,0,0,0,0-5.88,5.07,5.07,0,0,0-3.56-1.08H6.42l5.15-5.25Z"/><path class="cls-1" d="M44,97.35a12,12,0,0,1-5.49-1.12A7.83,7.83,0,0,1,34,89a7.24,7.24,0,0,1,1.33-4.42,8,8,0,0,1,4-2.74,21.64,21.64,0,0,1,6.89-.93h5.59v5.34H48.06a4.66,4.66,0,0,0-2.58.56,2.1,2.1,0,0,0-.09,3.24,2.83,2.83,0,0,0,1.93.61,3.8,3.8,0,0,0,2.09-.61,3.51,3.51,0,0,0,1.39-1.94l1.43,3.29a7.06,7.06,0,0,1-2.7,4.46A9.35,9.35,0,0,1,44,97.35Zm7.6-.49V92.11l-.79-1.28v-9a3.71,3.71,0,0,0-1.2-3,5.93,5.93,0,0,0-3.9-1,12.78,12.78,0,0,0-3.67.56,10.2,10.2,0,0,0-3.19,1.55l-3.53-7.31A19.05,19.05,0,0,1,41,70.33a27.74,27.74,0,0,1,6.42-.78q6.91,0,10.72,3.09t3.8,9.81V96.86Z"/><path class="cls-1" d="M74.69,98.09,63,70H74.39l8,20.89Zm-2.6,8.78a16.11,16.11,0,0,1-4.49-.66A10.8,10.8,0,0,1,64,104.46l3.67-7.6a7.18,7.18,0,0,0,1.89,1,5.86,5.86,0,0,0,2,.4,3.57,3.57,0,0,0,2.25-.62,4.26,4.26,0,0,0,1.28-1.84L76.21,93,77,91.91,85.57,70h10.5L85,97.4a18,18,0,0,1-3.41,5.74A10.73,10.73,0,0,1,77.31,106,15.62,15.62,0,0,1,72.09,106.87Z"/><path class="cls-1" d="M110.93,97.65a35.26,35.26,0,0,1-8.34-1A24.08,24.08,0,0,1,96,94.12l3.72-8.44A23.82,23.82,0,0,0,105.16,88a21.11,21.11,0,0,0,5.86.86,12.14,12.14,0,0,0,2.63-.22A3,3,0,0,0,115,88a1.3,1.3,0,0,0,.45-1,1.65,1.65,0,0,0-1-1.47,10.85,10.85,0,0,0-2.73-.91c-1.12-.25-2.36-.51-3.7-.79a32.37,32.37,0,0,1-4-1.1,15.92,15.92,0,0,1-3.73-1.81,8.45,8.45,0,0,1-2.72-3,9.25,9.25,0,0,1-1-4.59,10,10,0,0,1,1.79-5.81,12.28,12.28,0,0,1,5.34-4.19,21.87,21.87,0,0,1,8.85-1.57,32.33,32.33,0,0,1,6.87.74,21.75,21.75,0,0,1,6.08,2.25L122,73.13A25.83,25.83,0,0,0,117,71.22a17.67,17.67,0,0,0-4.63-.64,9.76,9.76,0,0,0-2.65.29,2.88,2.88,0,0,0-1.4.79,1.6,1.6,0,0,0-.42,1.08,1.57,1.57,0,0,0,1,1.39,11,11,0,0,0,2.73.86l3.72.74a29.55,29.55,0,0,1,4,1.08,15.7,15.7,0,0,1,3.7,1.81,8.53,8.53,0,0,1,2.72,2.94,9,9,0,0,1,1,4.51,10,10,0,0,1-1.79,5.77,12.37,12.37,0,0,1-5.32,4.21A21.45,21.45,0,0,1,110.93,97.65Z"/><path class="cls-1" d="M127.55,79.6V71.51H147.8V79.6ZM143,97.35c-3.7,0-6.57-.89-8.63-2.67s-3.09-4.52-3.09-8.21V64h11.08V86.37a2.64,2.64,0,0,0,.66,1.91,2.18,2.18,0,0,0,1.64.69,4.36,4.36,0,0,0,2.51-.74l2.64,7.7A9.83,9.83,0,0,1,146.7,97,19.81,19.81,0,0,1,143,97.35Z"/><path class="cls-1" d="M163.74,97.35a12.52,12.52,0,0,1-5.76-1.3,9.21,9.21,0,0,1-4-4.07,15.13,15.13,0,0,1-1.47-7.13V70h11.08v12.9a6.31,6.31,0,0,0,.94,4A3.13,3.13,0,0,0,167,88a3.53,3.53,0,0,0,1.84-.52,3.6,3.6,0,0,0,1.4-1.71,7.86,7.86,0,0,0,.54-3.17V70h11.08V96.86H171.34V89.12l2.11,2.1a9.77,9.77,0,0,1-4,4.64A11.19,11.19,0,0,1,163.74,97.35Z"/><path class="cls-1" d="M186.79,96.86V60.48h11.08V73.62l-.49,9.81,0,9.8v3.63Zm17.9.49a10.75,10.75,0,0,1-5.94-1.47,8.26,8.26,0,0,1-3.26-4.56,26,26,0,0,1-1-7.89,24,24,0,0,1,1.08-7.83A8.65,8.65,0,0,1,198.93,71a10.36,10.36,0,0,1,5.76-1.49,12.81,12.81,0,0,1,6.47,1.67A12.37,12.37,0,0,1,215.87,76a14.77,14.77,0,0,1,1.76,7.43,14.82,14.82,0,0,1-1.76,7.43,12.59,12.59,0,0,1-11.18,6.49ZM202,88.72a4,4,0,0,0,3.78-2.38,6.59,6.59,0,0,0,.58-2.91,6.43,6.43,0,0,0-.58-2.92,4.2,4.2,0,0,0-7.56,0,6.43,6.43,0,0,0-.58,2.92,6.59,6.59,0,0,0,.58,2.91A4,4,0,0,0,202,88.72Z"/><path class="cls-1" d="M226.12,97.35a6.37,6.37,0,0,1-4.61-1.79A6,6,0,0,1,219.64,91a5.87,5.87,0,0,1,1.87-4.56,7,7,0,0,1,9.22,0A5.9,5.9,0,0,1,232.59,91a6.07,6.07,0,0,1-1.86,4.58A6.38,6.38,0,0,1,226.12,97.35Z"/><rect class="cls-2" x="88.58" width="53.62" height="53.62" rx="9.92"/><path class="cls-3" d="M136.31,18.52V28a7.59,7.59,0,0,0-10,0V18.52c0-2.07,2.23-3.76,5-3.76a6,6,0,0,1,3.53,1.1A3.37,3.37,0,0,1,136.31,18.52Z"/><rect class="cls-3" x="122.03" y="31.4" width="18.59" height="9.99" rx="4.33" transform="translate(167.71 -94.92) rotate(90)"/><path class="cls-3" d="M120.39,11.68V26.81a7.62,7.62,0,0,0-10,0V11.68c0-2.07,2.24-3.75,5-3.75A5.89,5.89,0,0,1,118.92,9,3.38,3.38,0,0,1,120.39,11.68Z"/><path class="cls-3" d="M110.39,35.1V29.66c0-2.08,2.24-3.76,5-3.76h0c2.76,0,5,1.68,5,3.76V35.1c0,2.07-2.23,3.75-5,3.75h0C112.63,38.85,110.39,37.17,110.39,35.1Z"/><path class="cls-3" d="M104.45,33.8v8.13c0,2.08-2.23,3.76-5,3.76a5.93,5.93,0,0,1-3.53-1.1,3.37,3.37,0,0,1-1.46-2.66V33.81a7.62,7.62,0,0,0,10,0Z"/><path class="cls-3" d="M94.46,31V18.52c0-2.07,2.24-3.76,5-3.76h0c2.76,0,5,1.69,5,3.76V31c0,2.07-2.23,3.75-5,3.75h0C96.7,34.71,94.46,33,94.46,31Z"/></g></g></svg>