<svg xmlns="http://www.w3.org/2000/svg" xmlns:xlink="http://www.w3.org/1999/xlink" viewBox="0 0 289.98 48.58"><defs><style>.cls-1{fill:url(#Degradado_sin_nombre_5);}.cls-2{fill:url(#Degradado_sin_nombre_8);}.cls-3{fill:#fff;}</style><linearGradient id="Degradado_sin_nombre_5" x1="45.15" y1="24.64" x2="289.98" y2="24.64" gradientUnits="userSpaceOnUse"><stop offset="0" stop-color="#695cfe"/><stop offset="1" stop-color="#2ef0ff"/></linearGradient><linearGradient id="Degradado_sin_nombre_8" x1="2.15" y1="2.15" x2="37.53" y2="37.53" gradientUnits="userSpaceOnUse"><stop offset="0" stop-color="#695cfe"/><stop offset="0.02" stop-color="#6860fe"/><stop offset="0.26" stop-color="#5393fe"/><stop offset="0.49" stop-color="#43bbff"/><stop offset="0.69" stop-color="#38d8ff"/><stop offset="0.87" stop-color="#30eaff"/><stop offset="1" stop-color="#2ef0ff"/></linearGradient></defs><title>paystub-logo-blue</title><g id="Capa_2" data-name="Capa 2"><g id="Capa_1-2" data-name="Capa 1"><path class="cls-1" d="M45.15,38.25V2.82h17.4A21.66,21.66,0,0,1,71.3,4.44,12.85,12.85,0,0,1,77,9.07a12.45,12.45,0,0,1,2,7.11,12.31,12.31,0,0,1-2,7.09,13,13,0,0,1-5.7,4.63,21.31,21.31,0,0,1-8.75,1.65H51.92l5.42-5.12V38.25Zm12.19-12.5-5.42-5.42h9.86a5.41,5.41,0,0,0,3.74-1.11,3.9,3.9,0,0,0,1.21-3,3.9,3.9,0,0,0-1.21-3A5.36,5.36,0,0,0,61.78,12H51.92l5.42-5.41Z"/><path class="cls-1" d="M91.46,38.76a12.88,12.88,0,0,1-5.78-1.16,8.47,8.47,0,0,1-3.52-3.12A8.16,8.16,0,0,1,81,30.15a7.41,7.41,0,0,1,1.39-4.55,8.53,8.53,0,0,1,4.26-2.84,23.18,23.18,0,0,1,7.25-1h5.89v5.52h-4A4.89,4.89,0,0,0,93,27.9a2.15,2.15,0,0,0-.1,3.34,3.08,3.08,0,0,0,2,.64,4.05,4.05,0,0,0,2.19-.64,3.64,3.64,0,0,0,1.47-2l1.5,3.39a7.26,7.26,0,0,1-2.84,4.61A10,10,0,0,1,91.46,38.76Zm8-.51V33.34L98.63,32V22.71a3.79,3.79,0,0,0-1.26-3.08,6.37,6.37,0,0,0-4.11-1.07,13.87,13.87,0,0,0-3.87.58A10.86,10.86,0,0,0,86,20.74L82.32,13.2a19.81,19.81,0,0,1,5.94-2.33A29.56,29.56,0,0,1,95,10.06q7.28,0,11.28,3.19t4,10.12V38.25Z"/><path class="cls-1" d="M123.77,39.52l-12.29-29h12l8.47,21.57ZM121,48.58a17.43,17.43,0,0,1-4.72-.68,11.44,11.44,0,0,1-3.84-1.8l3.87-7.85a7.52,7.52,0,0,0,2,1.07,6.26,6.26,0,0,0,2.15.4,3.84,3.84,0,0,0,2.37-.63,4.41,4.41,0,0,0,1.34-1.9l1.19-2.94.83-1.11,9-22.58h11.05L134.66,38.81a18.66,18.66,0,0,1-3.59,5.92,11.45,11.45,0,0,1-4.54,3A16.92,16.92,0,0,1,121,48.58Z"/><path class="cls-1" d="M161.92,39.06a37.35,37.35,0,0,1-8.78-1,25.22,25.22,0,0,1-7-2.63l3.93-8.71a25.38,25.38,0,0,0,5.75,2.36A22.92,22.92,0,0,0,162,30a12.54,12.54,0,0,0,2.76-.23,3.25,3.25,0,0,0,1.47-.65,1.39,1.39,0,0,0,.47-1,1.69,1.69,0,0,0-1.09-1.52,12,12,0,0,0-2.86-.94l-3.9-.81a34.51,34.51,0,0,1-4.26-1.14,16.48,16.48,0,0,1-3.92-1.87,8.75,8.75,0,0,1-2.86-3.06A9.35,9.35,0,0,1,146.74,14a10.23,10.23,0,0,1,1.89-6,12.78,12.78,0,0,1,5.62-4.33A23.52,23.52,0,0,1,163.57,2a34.41,34.41,0,0,1,7.23.76,23.25,23.25,0,0,1,6.4,2.33l-3.67,8.65a28.61,28.61,0,0,0-5.19-2,19.06,19.06,0,0,0-4.87-.66,9.94,9.94,0,0,0-2.79.31,3,3,0,0,0-1.47.81,1.54,1.54,0,0,0,.64,2.55,11.92,11.92,0,0,0,2.87.89l3.92.76a32.57,32.57,0,0,1,4.26,1.11,17.12,17.12,0,0,1,3.9,1.87,9,9,0,0,1,2.86,3,9.21,9.21,0,0,1,1.09,4.66,10.13,10.13,0,0,1-1.89,5.94,13,13,0,0,1-5.6,4.36A23.26,23.26,0,0,1,161.92,39.06Z"/><path class="cls-1" d="M179.42,20.44V12.08h21.31v8.36Zm16.2,18.32c-3.89,0-6.91-.92-9.08-2.76s-3.25-4.66-3.25-8.48V4.34H195V27.42a2.65,2.65,0,0,0,.7,2,2.29,2.29,0,0,0,1.73.71,4.59,4.59,0,0,0,2.63-.76l2.79,8a10.48,10.48,0,0,1-3.23,1.12A21.82,21.82,0,0,1,195.62,38.76Z"/><path class="cls-1" d="M217.51,38.76a13.49,13.49,0,0,1-6.06-1.34,9.7,9.7,0,0,1-4.26-4.2,15.32,15.32,0,0,1-1.55-7.37V10.56H217.3V23.88c0,2,.33,3.32,1,4.1A3.35,3.35,0,0,0,221,29.14a3.61,3.61,0,0,0,3.41-2.3,8.11,8.11,0,0,0,.56-3.27v-13h11.67V38.25h-11.1v-8l2.22,2.17a10.18,10.18,0,0,1-4.26,4.79A12,12,0,0,1,217.51,38.76Z"/><path class="cls-1" d="M241.77,38.25V.69h11.67V14.26l-.52,10.12,0,10.13v3.74Zm18.84.51a11.44,11.44,0,0,1-6.24-1.52,8.51,8.51,0,0,1-3.44-4.71,26.49,26.49,0,0,1-1.05-8.15A24.18,24.18,0,0,1,251,16.31a9,9,0,0,1,3.54-4.71,11,11,0,0,1,6.06-1.54,13.79,13.79,0,0,1,6.82,1.72,12.91,12.91,0,0,1,4.95,4.94,15,15,0,0,1,1.86,7.66,15.05,15.05,0,0,1-1.86,7.67,13,13,0,0,1-4.95,5A13.61,13.61,0,0,1,260.61,38.76Zm-2.78-8.91a4.47,4.47,0,0,0,2.32-.61,4.25,4.25,0,0,0,1.65-1.84,6.74,6.74,0,0,0,.62-3,6.55,6.55,0,0,0-.62-3,4.29,4.29,0,0,0-1.65-1.79,4.74,4.74,0,0,0-4.65,0,4.29,4.29,0,0,0-1.65,1.79,6.55,6.55,0,0,0-.62,3,6.74,6.74,0,0,0,.62,3,4.25,4.25,0,0,0,1.65,1.84A4.48,4.48,0,0,0,257.83,29.85Z"/><path class="cls-1" d="M283.17,38.76a6.81,6.81,0,0,1-4.85-1.85,6.2,6.2,0,0,1-2-4.73,6,6,0,0,1,2-4.71,7.53,7.53,0,0,1,9.7,0,6,6,0,0,1,2,4.71,6.2,6.2,0,0,1-2,4.73A6.81,6.81,0,0,1,283.17,38.76Z"/><rect class="cls-2" width="39.69" height="39.69" rx="7.34"/><path class="cls-3" d="M35.33,13.71v7a5.64,5.64,0,0,0-7.39,0v-7c0-1.54,1.65-2.78,3.69-2.78a4.39,4.39,0,0,1,2.62.81A2.48,2.48,0,0,1,35.33,13.71Z"/><rect class="cls-3" x="24.76" y="23.24" width="13.76" height="7.4" rx="3.21" transform="translate(58.57 -4.7) rotate(90)"/><path class="cls-3" d="M23.54,8.65V19.84a5.32,5.32,0,0,0-3.69-1.38,5.31,5.31,0,0,0-3.7,1.38V8.65c0-1.54,1.65-2.78,3.7-2.78a4.32,4.32,0,0,1,2.61.82A2.46,2.46,0,0,1,23.54,8.65Z"/><path class="cls-3" d="M16.15,26V22c0-1.53,1.65-2.78,3.69-2.78h0c2.05,0,3.7,1.25,3.7,2.78v4c0,1.53-1.65,2.78-3.7,2.78h0C17.8,28.76,16.15,27.51,16.15,26Z"/><path class="cls-3" d="M11.75,25v6c0,1.53-1.66,2.78-3.7,2.78A4.35,4.35,0,0,1,5.43,33a2.5,2.5,0,0,1-1.08-2V25a5.28,5.28,0,0,0,3.7,1.38A5.28,5.28,0,0,0,11.75,25Z"/><path class="cls-3" d="M4.35,22.91v-9.2c0-1.54,1.66-2.78,3.7-2.78h0c2,0,3.7,1.24,3.7,2.78v9.2c0,1.54-1.66,2.78-3.7,2.78h0C6,25.69,4.35,24.45,4.35,22.91Z"/></g></g></svg>