<svg xmlns="http://www.w3.org/2000/svg" xmlns:xlink="http://www.w3.org/1999/xlink" viewBox="0 0 291.02 56.69"><defs><style>.cls-1{font-size:50.62px;fill:#695cfe;font-family:Montserrat-Black, Montserrat;font-weight:800;}.cls-2{letter-spacing:-0.02em;}.cls-3{letter-spacing:-0.01em;}.cls-4{fill:url(#Degradado_sin_nombre_8);}.cls-5{fill:#fff;}</style><linearGradient id="Degradado_sin_nombre_8" x1="2.15" y1="6.92" x2="37.53" y2="42.31" gradientUnits="userSpaceOnUse"><stop offset="0" stop-color="#695cfe"/><stop offset="0.02" stop-color="#6860fe"/><stop offset="0.26" stop-color="#5393fe"/><stop offset="0.49" stop-color="#43bbff"/><stop offset="0.69" stop-color="#38d8ff"/><stop offset="0.87" stop-color="#30eaff"/><stop offset="1" stop-color="#2ef0ff"/></linearGradient></defs><title>Paystub-logo-lilac</title><g id="Capa_2" data-name="Capa 2"><g id="Capa_1-2" data-name="Capa 1"><text class="cls-1" transform="translate(42.21 43.03) scale(1.02 1)"><tspan class="cls-2">P</tspan><tspan class="cls-3" x="36.85" y="0">a</tspan><tspan x="68.69" y="0">yStub.</tspan></text><rect class="cls-4" y="4.77" width="39.69" height="39.69" rx="7.34"/><path class="cls-5" d="M35.33,18.48v7a5.64,5.64,0,0,0-7.39,0v-7c0-1.54,1.65-2.78,3.69-2.78a4.39,4.39,0,0,1,2.62.81A2.49,2.49,0,0,1,35.33,18.48Z"/><rect class="cls-5" x="24.76" y="28.01" width="13.76" height="7.4" rx="3.21" transform="translate(63.34 0.08) rotate(90)"/><path class="cls-5" d="M23.54,13.42v11.2a5.28,5.28,0,0,0-3.69-1.39,5.27,5.27,0,0,0-3.7,1.39V13.42c0-1.53,1.65-2.78,3.7-2.78a4.32,4.32,0,0,1,2.61.82A2.46,2.46,0,0,1,23.54,13.42Z"/><path class="cls-5" d="M16.15,30.75v-4c0-1.53,1.65-2.78,3.69-2.78h0c2.05,0,3.7,1.25,3.7,2.78v4c0,1.54-1.65,2.78-3.7,2.78h0C17.8,33.53,16.15,32.29,16.15,30.75Z"/><path class="cls-5" d="M11.75,29.79v6c0,1.53-1.66,2.78-3.7,2.78a4.35,4.35,0,0,1-2.62-.82,2.5,2.5,0,0,1-1.08-2v-6a5.29,5.29,0,0,0,3.7,1.39A5.29,5.29,0,0,0,11.75,29.79Z"/><path class="cls-5" d="M4.35,27.69V18.48c0-1.54,1.66-2.78,3.7-2.78h0c2,0,3.7,1.24,3.7,2.78v9.21c0,1.53-1.66,2.78-3.7,2.78h0C6,30.47,4.35,29.22,4.35,27.69Z"/></g></g></svg>